<svg width="139" height="55" viewBox="0 0 139 55" fill="none" xmlns="http://www.w3.org/2000/svg">
<path fill-rule="evenodd" clip-rule="evenodd" d="M31.2299 45.2574C31.2299 45.842 31.4519 46.3671 31.8958 46.8327C32.3938 47.3307 33.0434 47.5797 33.8446 47.5797V46.7677C33.2058 46.7677 32.7024 46.5024 32.3342 45.9719C32.161 45.7229 32.0744 45.4847 32.0744 45.2574V41.4897C32.0744 41.0566 32.2855 40.6669 32.7078 40.3204C33.0542 40.0389 33.4386 39.8982 33.8608 39.8982V39.0862C32.8648 39.0862 32.1123 39.4759 31.6034 40.2554C31.3544 40.656 31.2299 41.0512 31.2299 41.441V45.2574ZM34.5754 39.9144C35.1275 39.9144 35.5606 40.1418 35.8746 40.5965C36.0478 40.8455 36.1507 41.1324 36.1831 41.4572V41.7495L36.9951 41.4572C36.9951 40.6885 36.6812 40.066 36.0532 39.5896C35.6093 39.254 35.1167 39.0862 34.5754 39.0862V39.9144ZM34.5591 47.5959C35.3278 47.5959 35.9883 47.309 36.5404 46.7352C36.9735 46.2805 37.1846 45.7716 37.1738 45.2087L36.378 44.9001C36.378 44.9217 36.3726 44.9705 36.3618 45.0463V45.1762C36.286 45.7933 35.9666 46.2588 35.4036 46.5728C35.1329 46.7136 34.8515 46.7839 34.5591 46.7839V47.5959ZM44.2486 41.3922V45.2574C44.2486 45.6147 44.3785 45.9882 44.6384 46.3779C45.1689 47.1899 45.9376 47.5959 46.9444 47.5959V46.7839C46.4897 46.7839 46.0783 46.6161 45.7102 46.2805C45.2988 45.8907 45.0931 45.4793 45.0931 45.0463V41.6034C45.0931 41.3435 45.1689 41.0783 45.3204 40.8076C45.6777 40.2013 46.219 39.8982 46.9444 39.8982V39.0862C46.1433 39.0862 45.472 39.3622 44.9307 39.9144C44.4759 40.3908 44.2486 40.8834 44.2486 41.3922ZM47.6265 46.7839V47.5959C48.406 47.5851 49.0556 47.3036 49.5753 46.7515C50.0192 46.2751 50.2412 45.7771 50.2412 45.2574V41.3922C50.2412 41.035 50.1167 40.6614 49.8676 40.2717C49.348 39.4813 48.6009 39.0862 47.6265 39.0862V39.8982C48.0596 39.8982 48.4439 40.0443 48.7796 40.3366C49.191 40.7048 49.3967 41.127 49.3967 41.6034V45.0787C49.3967 45.3278 49.3155 45.5876 49.1531 45.8583C48.8066 46.4754 48.2978 46.7839 47.6265 46.7839ZM4.12531 28.6402H53.5528V54.0469H10.3623L11.406 53.9796L11.2589 51.6976L4.25041 52.1495L4.37277 54.0469H4.12531V49.0956L13.3243 48.5023C14.0717 48.4541 14.6385 47.8093 14.5903 47.062L14.4806 45.3605L19.192 47.9718L20.3243 47.6048L19.804 39.537L18.6313 39.2781L14.2903 42.41L14.1605 40.3978C14.1123 39.6505 13.4674 39.0838 12.72 39.132L9.95954 39.3101C11.1341 38.3307 11.841 36.8232 11.7351 35.1804C11.5589 32.4479 9.20055 30.3756 6.46766 30.5519C5.60428 30.6075 4.8068 30.881 4.12531 31.3152V28.6402ZM10.8723 49.0052L4.34856 49.4259C4.87858 51.3547 6.80038 51.8026 7.69503 51.7855C10.0588 51.4546 10.7981 49.7941 10.8723 49.0052Z" fill="#F9F9F9"/>
<path d="M11.3526 23.3556C9.28313 23.3556 7.38117 22.853 5.64674 21.8479C3.91231 20.823 2.53266 19.4236 1.50777 17.6498C0.50259 15.8562 0 13.8458 0 11.6187C0 9.47036 0.522299 7.50928 1.5669 5.73543C2.6312 3.96159 4.04043 2.56222 5.79456 1.53733C7.56841 0.512444 9.45065 0 11.4413 0C12.821 0 13.9148 0.128111 14.7229 0.384333C15.531 0.620845 16.4672 1.0446 17.5315 1.65559V2.74946C16.5263 2.05963 15.5901 1.57675 14.7229 1.30082C13.8754 1.00518 12.8111 0.857358 11.53 0.857358C9.57877 0.857358 7.79507 1.35995 6.1789 2.36513C4.58243 3.3506 3.31118 4.68098 2.36513 6.35628C1.43879 8.01187 0.975615 9.79557 0.975615 11.7074C0.975615 13.6389 1.44864 15.4325 2.39469 17.088C3.34074 18.7436 4.59229 20.0642 6.14933 21.0496C7.72608 22.0154 9.42109 22.4983 11.2344 22.4983C12.5352 22.4983 13.6685 22.3505 14.6342 22.0548C15.6 21.7395 16.5657 21.2566 17.5315 20.6062V21.7C16.5855 22.2716 15.6098 22.6855 14.6047 22.9417C13.6192 23.2177 12.5352 23.3556 11.3526 23.3556Z" fill="#F9F9F9"/>
<path d="M46.6263 22.7643H45.5915L41.3934 14.309H29.6269L25.5175 22.7643H24.4828L35.5397 0.0591292L46.6263 22.7643ZM41.0387 13.4517L35.4806 2.18774L30.0408 13.4517H41.0387Z" fill="#F9F9F9"/>
<path d="M76.7957 0.591281V22.7643H75.8201V2.01036L65.3544 23.1782L54.9479 1.74428V22.7643H53.9723V0.591281H55.3618L65.3544 21.1679L75.4358 0.591281H76.7957Z" fill="#F9F9F9"/>
<path d="M85.5987 0.591281H93.5514V1.44864H86.5743V13.5108H92.3984V14.3681H86.5743V21.907H93.5514V22.7643H85.5987V0.591281Z" fill="#F9F9F9"/>
<path d="M100.795 0.591281H102.067C104.373 0.591281 106.146 1.20227 107.388 2.42426C108.65 3.64624 109.28 5.39052 109.28 7.6571C109.28 8.95792 108.965 10.1503 108.334 11.2344C107.723 12.3184 106.886 13.1757 105.821 13.8064C104.757 14.4174 103.584 14.7229 102.303 14.7229H102.096L109.724 22.7643H108.452L101.741 15.7281V22.7643H100.795V0.591281ZM102.274 13.8656C103.397 13.8656 104.422 13.5896 105.348 13.0378C106.275 12.4859 107.004 11.7468 107.536 10.8205C108.068 9.87441 108.334 8.82981 108.334 7.68666C108.334 5.69601 107.792 4.15868 106.708 3.07467C105.644 1.99065 104.116 1.44864 102.126 1.44864H101.741V13.8656H102.274Z" fill="#F9F9F9"/>
<path d="M137.901 22.7643H136.866L132.668 14.309H120.901L116.792 22.7643H115.757L126.814 0.0591292L137.901 22.7643ZM132.313 13.4517L126.755 2.18774L121.315 13.4517H132.313Z" fill="#F9F9F9"/>
<path d="M57.3444 47.709V36.341H58.2213V47.709H57.3444Z" fill="#F9F9F9"/>
<path d="M65.5722 47.709V36.341H66.4492V47.709H65.5722Z" fill="#F9F9F9"/>
<path d="M73.7676 45.3867V41.5054C73.7784 40.9965 74.0166 40.5093 74.4821 40.0438C75.0127 39.4916 75.6677 39.2155 76.4472 39.2155V40.0113C75.8301 40.0113 75.3212 40.2873 74.9206 40.8395C74.7149 41.121 74.6121 41.3863 74.6121 41.6353V42.9182H79.0294V41.6353C79.0294 41.0939 78.7641 40.6555 78.2336 40.3198C77.898 40.1033 77.5515 39.995 77.1942 39.995V39.2155C77.9196 39.2155 78.5692 39.4808 79.143 40.0113C79.6194 40.466 79.863 40.9586 79.8738 41.4891V43.7302H74.6121V45.3867C74.6121 45.7224 74.8178 46.0688 75.2292 46.4261C75.6189 46.7509 76.0304 46.9133 76.4634 46.9133V47.709C75.5107 47.709 74.7582 47.3193 74.2061 46.5398C73.9137 46.1283 73.7676 45.744 73.7676 45.3867ZM77.1942 47.709V46.8646C77.898 46.8646 78.4501 46.5668 78.8507 45.9714C78.9698 45.7873 79.051 45.6141 79.0943 45.4517L79.8901 45.7278C79.6519 46.5181 79.1701 47.0865 78.4447 47.433C78.055 47.617 77.6381 47.709 77.1942 47.709Z" fill="#F9F9F9"/>
<path d="M87.1598 45.3867C87.1598 45.9714 87.3817 46.4965 87.8256 46.962C88.3236 47.46 88.9733 47.709 89.7744 47.709V46.897C89.1357 46.897 88.6322 46.6318 88.2641 46.1013C88.0909 45.8523 88.0043 45.6141 88.0043 45.3867V41.619C88.0043 41.186 88.2154 40.7962 88.6376 40.4497C88.9841 40.1683 89.3684 40.0275 89.7907 40.0275V39.2155C88.7946 39.2155 88.0422 39.6053 87.5333 40.3848C87.2843 40.7854 87.1598 41.1806 87.1598 41.5703V45.3867ZM90.5052 40.0438C91.0574 40.0438 91.4905 40.2711 91.8044 40.7258C91.9777 40.9748 92.0805 41.2618 92.113 41.5866V41.8789L92.925 41.5866C92.925 40.8179 92.611 40.1953 91.9831 39.7189C91.5392 39.3833 91.0466 39.2155 90.5052 39.2155V40.0438ZM90.489 47.7253C91.2577 47.7253 91.9181 47.4384 92.4703 46.8646C92.9033 46.4098 93.1145 45.901 93.1036 45.338L92.3079 45.0294C92.3079 45.0511 92.3025 45.0998 92.2916 45.1756C92.2916 45.2406 92.2916 45.2839 92.2916 45.3055C92.2158 45.9226 91.8965 46.3882 91.3335 46.7022C91.0628 46.8429 90.7813 46.9133 90.489 46.9133V47.7253Z" fill="#F9F9F9"/>
<path d="M99.8699 40.2062V39.3779H100.909V36.3085H101.754V39.3779H102.793V40.2062H101.754V45.0944C101.754 45.993 102.057 46.5506 102.663 46.7671C102.912 46.8429 103.199 46.8808 103.524 46.8808H103.589L103.784 47.709H103.443C102.133 47.6982 101.337 47.1894 101.055 46.1825C100.958 45.836 100.909 45.4246 100.909 44.9482V40.2062H99.8699Z" fill="#F9F9F9"/>
<path d="M110.485 38.0949C110.485 37.8568 110.604 37.6889 110.842 37.5915C110.907 37.5699 110.972 37.559 111.037 37.559C111.286 37.559 111.454 37.6781 111.541 37.9163C111.562 37.9813 111.573 38.0408 111.573 38.0949C111.573 38.344 111.454 38.5118 111.216 38.5984C111.151 38.62 111.091 38.6309 111.037 38.6309C110.788 38.6309 110.615 38.5172 110.518 38.2898C110.496 38.2249 110.485 38.1599 110.485 38.0949ZM110.615 47.709V39.2805H111.459V47.709H110.615Z" fill="#F9F9F9"/>
<path d="M118.875 45.3867V41.5216C118.875 41.0127 119.103 40.5201 119.557 40.0438C120.099 39.4916 120.77 39.2155 121.571 39.2155V40.0275C120.846 40.0275 120.304 40.3307 119.947 40.937C119.796 41.2076 119.72 41.4729 119.72 41.7327V45.1756C119.72 45.6087 119.925 46.0201 120.337 46.4098C120.705 46.7455 121.116 46.9133 121.571 46.9133V47.7253C120.564 47.7253 119.796 47.3193 119.265 46.5073C119.005 46.1175 118.875 45.744 118.875 45.3867ZM122.253 47.7253V46.9133C122.924 46.9133 123.433 46.6047 123.78 45.9876C123.942 45.7169 124.023 45.4571 124.023 45.2081V41.7327C124.023 41.2563 123.818 40.8341 123.406 40.466C123.071 40.1737 122.686 40.0275 122.253 40.0275V39.2155C123.228 39.2155 123.975 39.6107 124.494 40.401C124.743 40.7908 124.868 41.1643 124.868 41.5216V45.3867C124.868 45.9064 124.646 46.4044 124.202 46.8808C123.682 47.433 123.033 47.7145 122.253 47.7253Z" fill="#F9F9F9"/>
<path d="M132.089 47.709V41.5054C132.089 40.9857 132.322 40.4822 132.787 39.995C133.339 39.4429 134.016 39.1668 134.817 39.1668V40.0113C134.222 40.0113 133.718 40.244 133.307 40.7096C133.058 41.0019 132.933 41.2996 132.933 41.6028V47.709H132.089ZM135.515 40.0113V39.1668C136.49 39.1668 137.259 39.5674 137.822 40.3685C138.103 40.7691 138.244 41.1481 138.244 41.5054V47.709H137.383V41.6028C137.383 41.2563 137.204 40.9099 136.847 40.5634C136.468 40.1953 136.024 40.0113 135.515 40.0113Z" fill="#F9F9F9"/>
</svg>
