<svg width="300" height="118" viewBox="0 0 300 118" fill="none" xmlns="http://www.w3.org/2000/svg">
<path fill-rule="evenodd" clip-rule="evenodd" d="M9.30916 68.5602C10.698 67.7542 12.2896 67.2488 14.0007 67.1384C19.9169 66.7569 25.0221 71.2429 25.4035 77.1582C25.6329 80.7146 24.1026 83.978 21.5599 86.0981L27.5358 85.7127C29.1537 85.6084 30.5498 86.8351 30.6541 88.4528L30.935 92.8088L40.3324 86.0288L42.8712 86.5894L43.9975 104.054L41.5461 104.849L31.3469 99.1961L31.5845 102.879C31.6888 104.497 30.4618 105.893 28.8439 105.997L8.9303 107.282V110C8.9303 111.394 9.28702 112.705 9.91419 113.847L24.3727 112.914L24.6913 117.854L22.4339 118H107.93C112.349 118 115.93 114.418 115.93 110V71C115.93 66.5817 112.349 63 107.93 63H16.9303C13.3629 63 10.3408 65.3351 9.30916 68.5602ZM9.41333 107.997L23.5358 107.086C23.3752 108.794 21.7747 112.388 16.6577 113.105C14.721 113.142 10.5607 112.172 9.41333 107.997Z" fill="black"/>
<path d="M24.9715 51.28C20.4915 51.28 16.3742 50.192 12.6195 48.016C8.86484 45.7973 5.87817 42.768 3.65951 38.928C1.48351 35.0453 0.395508 30.6933 0.395508 25.872C0.395508 21.2213 1.52617 16.976 3.78751 13.136C6.09151 9.29597 9.14217 6.26664 12.9395 4.04797C16.7795 1.8293 20.8542 0.719971 25.1635 0.719971C28.1502 0.719971 30.5182 0.997304 32.2675 1.55197C34.0168 2.06397 36.0435 2.9813 38.3475 4.30397V6.67197C36.1715 5.17864 34.1448 4.13331 32.2675 3.53597C30.4328 2.89597 28.1288 2.57597 25.3555 2.57597C21.1315 2.57597 17.2702 3.66397 13.7715 5.83997C10.3155 7.9733 7.56351 10.8533 5.51551 14.48C3.51017 18.064 2.50751 21.9253 2.50751 26.064C2.50751 30.2453 3.53151 34.128 5.57951 37.712C7.62751 41.296 10.3368 44.1546 13.7075 46.288C17.1208 48.3786 20.7902 49.424 24.7155 49.424C27.5315 49.424 29.9848 49.104 32.0755 48.464C34.1662 47.7813 36.2568 46.736 38.3475 45.328V47.696C36.2995 48.9333 34.1875 49.8293 32.0115 50.384C29.8782 50.9813 27.5315 51.28 24.9715 51.28Z" fill="black"/>
<path d="M101.332 50H99.0915L90.0035 31.696H64.5315L55.6355 50H53.3955L77.3315 0.847973L101.332 50ZM89.2355 29.84L77.2035 5.45597L65.4275 29.84H89.2355Z" fill="black"/>
<path d="M166.642 1.99997V50H164.53V5.07197L141.874 50.896L119.346 4.49597V50H117.234V1.99997H120.242L141.874 46.544L163.698 1.99997H166.642Z" fill="black"/>
<path d="M185.699 1.99997H202.915V3.85597H187.811V29.968H200.419V31.824H187.811V48.144H202.915V50H185.699V1.99997Z" fill="black"/>
<path d="M218.596 1.99997H221.348C226.34 1.99997 230.18 3.32264 232.868 5.96797C235.599 8.6133 236.964 12.3893 236.964 17.296C236.964 20.112 236.281 22.6933 234.916 25.04C233.593 27.3866 231.78 29.2426 229.476 30.608C227.172 31.9306 224.633 32.592 221.86 32.592H221.412L237.924 50H235.172L220.644 34.768V50H218.596V1.99997ZM221.796 30.736C224.228 30.736 226.447 30.1386 228.452 28.944C230.457 27.7493 232.036 26.1493 233.188 24.144C234.34 22.096 234.916 19.8346 234.916 17.36C234.916 13.0506 233.743 9.72264 231.396 7.37597C229.092 5.02931 225.785 3.85597 221.476 3.85597H220.644V30.736H221.796Z" fill="black"/>
<path d="M298.922 50H296.682L287.594 31.696H262.122L253.226 50H250.986L274.922 0.847973L298.922 50ZM286.826 29.84L274.794 5.45597L263.018 29.84H286.826Z" fill="black"/>
<path d="M67.6061 98.9726C67.6061 100.238 68.0866 101.375 69.0475 102.383C70.1256 103.461 71.5319 104 73.2662 104V102.242C71.8834 102.242 70.7936 101.668 69.9967 100.52C69.6217 99.9804 69.4342 99.4648 69.4342 98.9726V90.8164C69.4342 89.8789 69.8912 89.0351 70.8053 88.2851C71.5553 87.6758 72.3873 87.3711 73.3014 87.3711V85.6133C71.1451 85.6133 69.5162 86.457 68.4147 88.1445C67.8756 89.0117 67.6061 89.8672 67.6061 90.7109V98.9726ZM74.8483 87.4062C76.0436 87.4062 76.9811 87.8984 77.6608 88.8828C78.0358 89.4218 78.2584 90.0429 78.3287 90.7461V91.3789L80.0866 90.7461C80.0866 89.082 79.4069 87.7343 78.0475 86.7031C77.0866 85.9765 76.0201 85.6133 74.8483 85.6133V87.4062ZM74.8131 104.035C76.4772 104.035 77.9069 103.414 79.1022 102.172C80.0397 101.187 80.4967 100.086 80.4733 98.8672L78.7506 98.1992C78.7506 98.2461 78.7389 98.3515 78.7155 98.5156C78.7155 98.6562 78.7155 98.75 78.7155 98.7968C78.5514 100.133 77.86 101.141 76.6412 101.82C76.0553 102.125 75.4459 102.277 74.8131 102.277V104.035Z" fill="black"/>
<path d="M95.7887 98.9726V90.6054C95.7887 89.5039 96.2809 88.4375 97.2653 87.4062C98.4372 86.2109 99.8903 85.6133 101.625 85.6133V87.3711C100.054 87.3711 98.8825 88.0273 98.1091 89.3398C97.7809 89.9258 97.6169 90.5 97.6169 91.0625V98.5156C97.6169 99.4531 98.0622 100.344 98.9528 101.187C99.7497 101.914 100.64 102.277 101.625 102.277V104.035C99.445 104.035 97.7809 103.156 96.6325 101.398C96.07 100.555 95.7887 99.7461 95.7887 98.9726ZM103.101 104.035V102.277C104.554 102.277 105.656 101.609 106.406 100.273C106.757 99.6875 106.933 99.125 106.933 98.5859V91.0625C106.933 90.0312 106.488 89.1172 105.597 88.3203C104.871 87.6875 104.039 87.3711 103.101 87.3711V85.6133C105.211 85.6133 106.828 86.4687 107.953 88.1797C108.492 89.0234 108.761 89.832 108.761 90.6054V98.9726C108.761 100.098 108.281 101.176 107.32 102.207C106.195 103.402 104.789 104.012 103.101 104.035Z" fill="black"/>
<path d="M124.534 104V79.3906H126.432V104H124.534Z" fill="black"/>
<path d="M142.345 104V79.3906H144.244V104H142.345Z" fill="black"/>
<path d="M160.087 98.9726V90.5703C160.11 89.4687 160.626 88.414 161.634 87.4062C162.782 86.2109 164.2 85.6133 165.887 85.6133V87.3359C164.552 87.3359 163.45 87.9336 162.583 89.1289C162.137 89.7383 161.915 90.3125 161.915 90.8515V93.6289H171.477V90.8515C171.477 89.6797 170.903 88.7304 169.755 88.0039C169.028 87.5351 168.278 87.3008 167.505 87.3008V85.6133C169.075 85.6133 170.481 86.1875 171.723 87.3359C172.755 88.3203 173.282 89.3867 173.305 90.5351V95.3867H161.915V98.9726C161.915 99.6992 162.36 100.449 163.251 101.223C164.095 101.926 164.985 102.277 165.923 102.277V104C163.86 104 162.231 103.156 161.036 101.469C160.403 100.578 160.087 99.7461 160.087 98.9726ZM167.505 104V102.172C169.028 102.172 170.223 101.527 171.091 100.238C171.348 99.8398 171.524 99.4648 171.618 99.1133L173.341 99.7109C172.825 101.422 171.782 102.652 170.212 103.402C169.368 103.801 168.466 104 167.505 104Z" fill="black"/>
<path d="M189.078 98.9726C189.078 100.238 189.558 101.375 190.519 102.383C191.598 103.461 193.004 104 194.738 104V102.242C193.355 102.242 192.265 101.668 191.469 100.52C191.094 99.9804 190.906 99.4648 190.906 98.9726V90.8164C190.906 89.8789 191.363 89.0351 192.277 88.2851C193.027 87.6758 193.859 87.3711 194.773 87.3711V85.6133C192.617 85.6133 190.988 86.457 189.887 88.1445C189.348 89.0117 189.078 89.8672 189.078 90.7109V98.9726ZM196.32 87.4062C197.515 87.4062 198.453 87.8984 199.133 88.8828C199.508 89.4218 199.73 90.0429 199.801 90.7461V91.3789L201.558 90.7461C201.558 89.082 200.879 87.7343 199.519 86.7031C198.558 85.9765 197.492 85.6133 196.32 85.6133V87.4062ZM196.285 104.035C197.949 104.035 199.379 103.414 200.574 102.172C201.512 101.187 201.969 100.086 201.945 98.8672L200.223 98.1992C200.223 98.2461 200.211 98.3515 200.187 98.5156C200.187 98.6562 200.187 98.75 200.187 98.7968C200.023 100.133 199.332 101.141 198.113 101.82C197.527 102.125 196.918 102.277 196.285 102.277V104.035Z" fill="black"/>
<path d="M216.593 87.7578V85.9648H218.843V79.3203H220.671V85.9648H222.921V87.7578H220.671V98.3398C220.671 100.285 221.327 101.492 222.64 101.961C223.179 102.125 223.8 102.207 224.503 102.207H224.643L225.065 104H224.327C221.491 103.977 219.768 102.875 219.159 100.695C218.948 99.9453 218.843 99.0547 218.843 98.0234V87.7578H216.593Z" fill="black"/>
<path d="M239.572 83.1875C239.572 82.6718 239.83 82.3086 240.346 82.0976C240.486 82.0508 240.627 82.0273 240.768 82.0273C241.307 82.0273 241.67 82.2851 241.857 82.8008C241.904 82.9414 241.928 83.0703 241.928 83.1875C241.928 83.7265 241.67 84.0898 241.154 84.2773C241.014 84.3242 240.885 84.3476 240.768 84.3476C240.228 84.3476 239.853 84.1015 239.643 83.6093C239.596 83.4687 239.572 83.3281 239.572 83.1875ZM239.853 104V85.7539H241.682V104H239.853Z" fill="black"/>
<path d="M257.735 98.9726V90.6054C257.735 89.5039 258.227 88.4375 259.212 87.4062C260.384 86.2109 261.837 85.6133 263.571 85.6133V87.3711C262.001 87.3711 260.829 88.0273 260.056 89.3398C259.727 89.9258 259.563 90.5 259.563 91.0625V98.5156C259.563 99.4531 260.009 100.344 260.899 101.187C261.696 101.914 262.587 102.277 263.571 102.277V104.035C261.392 104.035 259.727 103.156 258.579 101.398C258.017 100.555 257.735 99.7461 257.735 98.9726ZM265.048 104.035V102.277C266.501 102.277 267.602 101.609 268.352 100.273C268.704 99.6875 268.88 99.125 268.88 98.5859V91.0625C268.88 90.0312 268.435 89.1172 267.544 88.3203C266.817 87.6875 265.985 87.3711 265.048 87.3711V85.6133C267.157 85.6133 268.774 86.4687 269.899 88.1797C270.438 89.0234 270.708 89.832 270.708 90.6054V98.9726C270.708 100.098 270.227 101.176 269.267 102.207C268.142 103.402 266.735 104.012 265.048 104.035Z" fill="black"/>
<path d="M286.34 104V90.5703C286.34 89.4453 286.844 88.3554 287.852 87.3008C289.047 86.1054 290.512 85.5078 292.246 85.5078V87.3359C290.957 87.3359 289.867 87.8398 288.977 88.8476C288.438 89.4804 288.168 90.125 288.168 90.7812V104H286.34ZM293.758 87.3359V85.5078C295.867 85.5078 297.531 86.375 298.75 88.1093C299.359 88.9765 299.664 89.7968 299.664 90.5703V104H297.801V90.7812C297.801 90.0312 297.414 89.2812 296.641 88.5312C295.82 87.7343 294.859 87.3359 293.758 87.3359Z" fill="black"/>
<path d="M67.6061 98.9727C67.6061 100.238 68.0865 101.375 69.0475 102.383C70.1256 103.461 71.5319 104 73.2662 104V102.242C71.8834 102.242 70.7936 101.668 69.9967 100.52C69.6217 99.9805 69.4342 99.4648 69.4342 98.9727V90.8164C69.4342 89.8789 69.8912 89.0352 70.8053 88.2852C71.5553 87.6758 72.3873 87.3711 73.3014 87.3711V85.6133C71.1451 85.6133 69.5162 86.457 68.4147 88.1445C67.8756 89.0117 67.6061 89.8672 67.6061 90.7109V98.9727ZM74.8483 87.4062C76.0436 87.4062 76.9811 87.8984 77.6608 88.8828C78.0358 89.4219 78.2584 90.043 78.3287 90.7461V91.3789L80.0865 90.7461C80.0865 89.082 79.4069 87.7344 78.0475 86.7031C77.0865 85.9766 76.0201 85.6133 74.8483 85.6133V87.4062ZM74.8131 104.035C76.4772 104.035 77.9069 103.414 79.1022 102.172C80.0397 101.188 80.4967 100.086 80.4733 98.8672L78.7506 98.1992C78.7506 98.2461 78.7389 98.3516 78.7155 98.5156C78.7155 98.6562 78.7155 98.75 78.7155 98.7969C78.5514 100.133 77.86 101.141 76.6412 101.82C76.0553 102.125 75.4459 102.277 74.8131 102.277V104.035Z" fill="white"/>
<path d="M95.7887 98.9727V90.6055C95.7887 89.5039 96.2809 88.4375 97.2653 87.4062C98.4372 86.2109 99.8903 85.6133 101.625 85.6133V87.3711C100.054 87.3711 98.8825 88.0273 98.109 89.3398C97.7809 89.9258 97.6169 90.5 97.6169 91.0625V98.5156C97.6169 99.4531 98.0622 100.344 98.9528 101.188C99.7497 101.914 100.64 102.277 101.625 102.277V104.035C99.445 104.035 97.7809 103.156 96.6325 101.398C96.07 100.555 95.7887 99.7461 95.7887 98.9727ZM103.101 104.035V102.277C104.554 102.277 105.656 101.609 106.406 100.273C106.757 99.6875 106.933 99.125 106.933 98.5859V91.0625C106.933 90.0312 106.488 89.1172 105.597 88.3203C104.871 87.6875 104.039 87.3711 103.101 87.3711V85.6133C105.211 85.6133 106.828 86.4688 107.953 88.1797C108.492 89.0234 108.761 89.832 108.761 90.6055V98.9727C108.761 100.098 108.281 101.176 107.32 102.207C106.195 103.402 104.789 104.012 103.101 104.035Z" fill="white"/>
</svg>
